<svg width="280" height="56" viewBox="0 0 280 56" fill="none" xmlns="http://www.w3.org/2000/svg">
  <g transform="translate(4,2)">
    <path d="M18,2 L10,2 Q4,2 4,8 L4,18 Q4,24 0,26 Q4,28 4,34 L4,44 Q4,50 10,50 L18,50" fill="none" stroke="#00d4ff" stroke-width="2.5" stroke-linecap="round"/>
    <path d="M34,2 L42,2 Q48,2 48,8 L48,18 Q48,24 52,26 Q48,28 48,34 L48,44 Q48,50 42,50 L34,50" fill="none" stroke="#00d4ff" stroke-width="2.5" stroke-linecap="round"/>
    <circle cx="26" cy="26" r="6" fill="#00d4ff"/>
    <line x1="20" y1="26" x2="8" y2="26" stroke="#00d4ff" stroke-width="1.5" opacity=".5"/>
    <line x1="32" y1="26" x2="44" y2="26" stroke="#00d4ff" stroke-width="1.5" opacity=".5"/>
  </g>
  <text x="68" y="38" font-family="'Space Grotesk', sans-serif" font-weight="700" font-size="30" fill="#f0f0f0" letter-spacing="-0.5">Bot<tspan fill="#00d4ff">Node</tspan></text>
  <text x="248" y="38" font-family="'Space Grotesk', sans-serif" font-weight="300" font-size="12" fill="#666">™</text>
</svg>