<svg width="48" height="48" viewBox="-2 0 56 52" fill="none" xmlns="http://www.w3.org/2000/svg">
  <path d="M18,2 L10,2 Q4,2 4,8 L4,18 Q4,24 0,26 Q4,28 4,34 L4,44 Q4,50 10,50 L18,50" fill="none" stroke="#00d4ff" stroke-width="2.5" stroke-linecap="round"/>
  <path d="M34,2 L42,2 Q48,2 48,8 L48,18 Q48,24 52,26 Q48,28 48,34 L48,44 Q48,50 42,50 L34,50" fill="none" stroke="#00d4ff" stroke-width="2.5" stroke-linecap="round"/>
  <circle cx="26" cy="26" r="6" fill="#00d4ff"/>
  <line x1="20" y1="26" x2="8" y2="26" stroke="#00d4ff" stroke-width="1.5" opacity=".5"/>
  <line x1="32" y1="26" x2="44" y2="26" stroke="#00d4ff" stroke-width="1.5" opacity=".5"/>
</svg>